<?xml version="1.0" encoding="UTF-8" standalone="no"?>
<svg
   width="93"
   height="36"
   viewBox="0 0 93 36"
   fill="none"
   version="1.1"
   id="svg26"
   sodipodi:docname="logoipsum-2.svg"
   inkscape:version="1.1.2 (b8e25be833, 2022-02-05)"
   xmlns:inkscape="http://www.inkscape.org/namespaces/inkscape"
   xmlns:sodipodi="http://sodipodi.sourceforge.net/DTD/sodipodi-0.dtd"
   xmlns="http://www.w3.org/2000/svg"
   xmlns:svg="http://www.w3.org/2000/svg">
  <defs
     id="defs30" />
  <sodipodi:namedview
     id="namedview28"
     pagecolor="#505050"
     bordercolor="#eeeeee"
     borderopacity="1"
     inkscape:pageshadow="0"
     inkscape:pageopacity="0"
     inkscape:pagecheckerboard="0"
     showgrid="false"
     inkscape:zoom="7.9193548"
     inkscape:cx="50.509165"
     inkscape:cy="11.427699"
     inkscape:window-width="1920"
     inkscape:window-height="991"
     inkscape:window-x="-9"
     inkscape:window-y="-9"
     inkscape:window-maximized="1"
     inkscape:current-layer="svg26" />
  <path
     fill-rule="evenodd"
     clip-rule="evenodd"
     d="m 12.640319,5.4556178 c 6.824552,0 12.356992,5.5345942 12.356992,12.3618812 0,6.827272 -5.53244,12.361875 -12.356992,12.361875 -6.8245728,0 -12.35698182,-5.534603 -12.35698182,-12.361875 0,-6.827287 5.53240902,-12.3618812 12.35698182,-12.3618812 z M 12.193664,6.3806525 C 10.784011,6.5791186 9.4416742,7.7123306 8.3996422,9.6075976 8.0973842,10.157354 7.8247042,10.764708 7.5869712,11.420495 9.0038092,11.064301 10.56023,10.854304 12.193664,10.821826 Z M 6.5426372,11.717403 c 0.295519,-0.927896 0.657112,-1.781598 1.07433,-2.5404582 0.516482,-0.9395382 1.129508,-1.7508767 1.820243,-2.3740243 -3.755851,1.0912181 -6.7163166,4.0528485 -7.8071023,7.8102135 0.6228965,-0.691014 1.4339141,-1.30425 2.3730826,-1.821011 0.7585677,-0.417357 1.6119207,-0.779089 2.5394467,-1.07472 z m -0.29681,1.044795 c -0.356026,1.417395 -0.565933,2.974445 -0.598405,4.608506 H 1.2080003 C 1.4063967,15.960354 2.5391552,14.617529 4.4336759,13.575147 4.9832162,13.27275 5.5903262,12.99993 6.2458272,12.762198 Z m 0.29508,4.608506 c 0.03689,-1.783272 0.293482,-3.457444 0.718066,-4.936714 1.478642,-0.424723 3.1521858,-0.681478 4.9346908,-0.71838 v 1.930271 c -0.664995,1.703051 -2.021283,3.059758 -3.7237758,3.724823 z m -0.893485,0.893589 H 1.2080003 c 0.1983964,1.41035 1.3311549,2.753106 3.2256756,3.795557 0.5495403,0.302327 1.1566503,0.575217 1.8121513,0.81295 -0.356026,-1.417396 -0.565933,-2.974445 -0.598405,-4.608507 z m 1.611551,4.936644 c -0.424584,-1.4792 -0.681179,-3.153372 -0.718066,-4.936644 h 1.928981 c 1.7024928,0.664995 3.0588508,2.021772 3.7237758,3.724823 v 1.93025 c -1.782505,-0.0369 -3.4560488,-0.293677 -4.9346908,-0.718429 z m -0.716336,0.716616 C 5.6151112,23.621922 4.7617582,23.260231 4.0031905,22.842874 3.064022,22.326113 2.2530044,21.712808 1.6301079,21.021863 c 1.0907857,3.75733 4.0512513,6.71901 7.8071023,7.810151 -0.690735,-0.623141 -1.303761,-1.434416 -1.820243,-2.373975 -0.417218,-0.758888 -0.778811,-1.612577 -1.07433,-2.540486 z m 5.6510268,5.336771 C 10.784011,29.055865 9.4416742,27.92266 8.3996422,26.027358 c -0.302258,-0.549686 -0.574938,-1.157132 -0.812671,-1.812849 1.416838,0.35618 2.9732588,0.566149 4.6066928,0.598656 z m 3.649764,-0.42231 c 0.690666,-0.623141 1.303692,-1.434416 1.820313,-2.373975 0.417148,-0.758888 0.778699,-1.612577 1.07426,-2.540486 0.927492,-0.295631 1.780901,-0.657322 2.53944,-1.074679 0.939141,-0.516761 1.750207,-1.130066 2.373069,-1.821011 -1.090723,3.75733 -4.051217,6.71901 -7.807082,7.810151 z m 1.850239,-4.617505 c -0.237732,0.655717 -0.510413,1.263163 -0.812671,1.812849 -1.041962,1.895302 -2.384299,3.028507 -3.794022,3.226966 v -4.441159 c 1.633364,-0.03251 3.189786,-0.242476 4.606693,-0.598656 z M 19.034818,22.8728 c 0.655438,-0.237733 1.262605,-0.510623 1.812152,-0.81295 1.894464,-1.042451 3.027251,-2.385207 3.22564,-3.795557 h -4.439415 c -0.03244,1.634062 -0.242406,3.191111 -0.598377,4.608507 z m -0.295003,-4.608507 c -0.0369,1.783272 -0.293608,3.457444 -0.71815,4.936644 -1.478642,0.424752 -3.152186,0.681528 -4.934691,0.718429 v -1.928785 c 0.664716,-1.703749 2.021353,-3.061083 3.724335,-3.726288 z m 0.89338,-0.893589 h 4.439415 c -0.198389,-1.41035 -1.331176,-2.753175 -3.22564,-3.795557 -0.549547,-0.302397 -1.156714,-0.575217 -1.812152,-0.812949 0.355971,1.417395 0.56594,2.974445 0.598377,4.608506 z m -1.61153,-4.936714 c 0.424542,1.47927 0.681249,3.153442 0.71815,4.936714 H 16.811309 C 15.108327,16.7055 13.75169,15.348165 13.086974,13.644416 V 11.71561 c 1.782505,0.0369 3.456049,0.293657 4.934691,0.71838 z m 0.716336,-0.716587 c 0.927492,0.295631 1.780901,0.657363 2.53944,1.07472 0.939141,0.516761 1.750207,1.129997 2.373069,1.821011 -1.090723,-3.757365 -4.051217,-6.7189954 -7.807082,-7.8102135 0.690666,0.6231476 1.303692,1.4344861 1.820313,2.3740243 0.417148,0.7588602 0.778699,1.6125622 1.07426,2.5404582 z M 13.086974,6.3806525 c 1.409723,0.1984661 2.75206,1.3316781 3.794022,3.2269451 0.302258,0.5497634 0.574939,1.1571104 0.812671,1.8128974 -1.416907,-0.356194 -2.973329,-0.566191 -4.606693,-0.598669 z"
     fill="#7c7c80"
     id="path24"
     style="stroke-width:0.697572" />
  <text
     xml:space="preserve"
     style="font-style:normal;font-variant:normal;font-weight:bold;font-stretch:normal;font-size:19.4829px;line-height:1.25;font-family:sans-serif;-inkscape-font-specification:'sans-serif, Bold';font-variant-ligatures:normal;font-variant-caps:normal;font-variant-numeric:normal;font-variant-east-asian:normal;fill:#808080;fill-opacity:1;stroke:none;stroke-width:0.487072"
     x="25.75296"
     y="23.980627"
     id="text2474"
     transform="scale(0.97357587,1.0271413)"><tspan
       sodipodi:role="line"
       id="tspan2472"
       x="25.75296"
       y="23.980627"
       style="font-style:normal;font-variant:normal;font-weight:bold;font-stretch:normal;font-size:19.4829px;font-family:sans-serif;-inkscape-font-specification:'sans-serif, Bold';font-variant-ligatures:normal;font-variant-caps:normal;font-variant-numeric:normal;font-variant-east-asian:normal;stroke-width:0.487072;fill:#808080">closeAI</tspan></text>
</svg>
